<svg width="20" height="22" viewBox="0 0 20 22" fill="none" xmlns="http://www.w3.org/2000/svg">
<path d="M16 7C16 5.4087 15.3679 3.88258 14.2426 2.75736C13.1174 1.63214 11.5913 1 10 1C8.4087 1 6.88258 1.63214 5.75736 2.75736C4.63214 3.88258 4 5.4087 4 7C4 14 1 16 1 16H19C19 16 16 14 16 7Z" stroke="#404040" stroke-width="2" stroke-linecap="round" stroke-linejoin="round"/>
<path d="M11.7303 20C11.5545 20.3031 11.3021 20.5547 10.9985 20.7295C10.6949 20.9044 10.3506 20.9965 10.0003 20.9965C9.64988 20.9965 9.30565 20.9044 9.00204 20.7295C8.69842 20.5547 8.44607 20.3031 8.27026 20" stroke="#404040" stroke-width="2" stroke-linecap="round" stroke-linejoin="round"/>
</svg>
