<svg width="36" height="32" viewBox="0 0 36 32" fill="none" xmlns="http://www.w3.org/2000/svg">
<path d="M3.85984 5.51088L4.75155 6.21845L3.85984 5.51088C0.68691 9.50956 1.14104 15.2799 4.90045 18.733L16.4441 29.3361C16.4537 29.3449 16.4636 29.354 16.4738 29.3634C16.6062 29.4852 16.7842 29.649 16.9602 29.7731C17.1802 29.9281 17.5306 30.1211 18 30.1211C18.4694 30.1211 18.8198 29.9281 19.0398 29.7731C19.2158 29.649 19.3938 29.4852 19.5262 29.3634C19.5364 29.354 19.5463 29.3449 19.5559 29.3361L31.0995 18.733C34.8589 15.2799 35.3131 9.50956 32.1402 5.51088L31.7334 4.99823C28.0622 0.371628 20.9727 0.928243 18 5.84856C15.0273 0.928243 7.93781 0.371629 4.26663 4.99823L3.85984 5.51088Z" stroke="#37393D" stroke-width="2.6"/>
</svg>
