<svg width="10" height="10" viewBox="0 0 10 10" fill="none" xmlns="http://www.w3.org/2000/svg">
<path d="M8.75 4.16666C8.75 7.08332 5 9.58332 5 9.58332C5 9.58332 1.25 7.08332 1.25 4.16666C1.25 3.17209 1.64509 2.21827 2.34835 1.51501C3.05161 0.811745 4.00544 0.416656 5 0.416656C5.99456 0.416656 6.94839 0.811745 7.65165 1.51501C8.35491 2.21827 8.75 3.17209 8.75 4.16666Z" stroke="#757575" stroke-linecap="round" stroke-linejoin="round"/>
<path d="M5 5.41666C5.69036 5.41666 6.25 4.85701 6.25 4.16666C6.25 3.4763 5.69036 2.91666 5 2.91666C4.30964 2.91666 3.75 3.4763 3.75 4.16666C3.75 4.85701 4.30964 5.41666 5 5.41666Z" stroke="#757575" stroke-linecap="round" stroke-linejoin="round"/>
</svg>
