<svg width="40" height="40" viewBox="0 0 40 40" fill="none" xmlns="http://www.w3.org/2000/svg">
<g clip-path="url(#clip0_13_205)">
<circle cx="20" cy="20" r="19.5" fill="#F9FAFB" stroke="#9CA3AF"/>
<circle cx="20" cy="20" r="19" stroke="#E5E7EB" stroke-width="2"/>
<path fill-rule="evenodd" clip-rule="evenodd" d="M31.4621 24.9949C29.5344 29.4124 25.1278 32.5 20 32.5C14.5568 32.5 9.92624 29.0209 8.21071 24.1651C5.96616 24.1003 4.1665 22.2604 4.1665 20.0002C4.1665 17.74 5.9661 15.9001 8.21059 15.8353C9.92603 10.9793 14.5567 7.5 20 7.5C25.7556 7.5 30.6027 11.39 32.0555 16.6844C34.1744 16.8805 35.8333 18.6631 35.8333 20.8332C35.8333 23.1344 33.9679 24.9998 31.6667 24.9998C31.5981 24.9998 31.5299 24.9982 31.4621 24.9949Z" fill="#E5E7EB"/>
<path fill-rule="evenodd" clip-rule="evenodd" d="M18.8332 18.0013C18.4395 17.2107 17.5849 16.6666 16.577 16.6666C16.1356 16.6666 15.4535 16.9619 15.1727 17.4419C15.1326 17.5526 14.9721 17.5526 14.932 17.4419C14.611 16.9988 13.969 16.7035 13.4876 16.7035C12.1635 16.7035 11.0401 17.7003 11 18.9186V18.9925C11 19.6201 11.2809 20.2108 11.7623 20.6538V20.6907C11.8024 20.7277 13.7283 22.2783 14.611 22.9797C14.8517 23.1643 15.2128 23.1643 15.4535 22.9797C15.8243 22.6851 16.372 22.2407 16.8885 21.8215L16.8887 21.8214C17.6019 21.2427 18.2557 20.7122 18.3022 20.6907V20.6538C18.728 20.2947 18.9968 19.7912 19.0534 19.22C19.3312 19.1859 19.6455 19.1666 20.0001 19.1666C20.5391 19.1666 20.9847 19.2111 21.3513 19.2846C21.3507 19.2969 21.3502 19.3092 21.3498 19.3215V19.3954C21.3498 20.023 21.6306 20.6137 22.1121 21.0567V21.0936C22.1522 21.1306 24.0781 22.6812 24.9608 23.3826C25.2015 23.5672 25.5626 23.5672 25.8033 23.3826C26.1741 23.088 26.7219 22.6435 27.2385 22.2243C27.9517 21.6456 28.6055 21.1151 28.652 21.0936V21.0567C29.1335 20.6506 29.4143 20.0599 29.4143 19.3954V19.3215C29.3742 18.0663 28.2909 17.0695 26.9267 17.0695C26.4854 17.0695 25.8033 17.3648 25.5225 17.8448C25.4824 17.9555 25.3219 17.9555 25.2817 17.8448C24.9608 17.4017 24.3188 17.1064 23.8374 17.1064C22.9849 17.1064 22.2155 17.5196 21.765 18.1391C21.3358 18.0052 20.761 17.9166 20.0001 17.9166C19.5484 17.9166 19.1623 17.9479 18.8332 18.0013Z" fill="#6B7280"/>
<path d="M17.9165 23.75C18.0554 24.0278 18.6665 24.5833 19.9998 24.5833C21.3332 24.5833 21.9443 24.0278 22.0832 23.75" stroke="#6B7280" stroke-width="1.25" stroke-linecap="round" stroke-linejoin="round"/>
<path d="M17.994 9.29705C17.5568 9.63961 16.8695 11.0199 17.2482 11.9908C17.6269 12.9618 18.2191 13.2024 18.5198 13.2797" stroke="#6B7280" stroke-width="0.993658" stroke-linecap="round"/>
<path d="M20.6503 9.98111C20.2124 10.2796 19.898 11.5634 20.3173 12.4604C20.6293 13.128 21.4273 13.3871 21.6813 13.4525" stroke="#6B7280" stroke-width="0.993658" stroke-linecap="round"/>
<path d="M22.8588 10.4373C22.6491 10.7123 22.8028 11.5047 23.163 12.0411C23.376 12.3582 24.0208 12.8214 24.1915 12.8095" stroke="#6B7280" stroke-width="0.991667" stroke-linecap="round"/>
</g>
<defs>
<clipPath id="clip0_13_205">
<rect width="40" height="40" fill="white"/>
</clipPath>
</defs>
</svg>
