<svg width="282" height="262" viewBox="0 0 282 262" fill="none" xmlns="http://www.w3.org/2000/svg">
<g opacity="0.78">
<path d="M2.7749 197.585C11.9111 189.697 40.0383 173.922 79.4574 173.922C118.876 173.922 144.54 189.697 152.444 197.585" stroke="#007AFF" stroke-width="7"/>
<circle cx="271.056" cy="155.288" r="10.9442" fill="#007AFF"/>
<path d="M166.938 0L274.014 43.1853V257.928L266.915 261.478L149.782 0H166.938Z" fill="#007AFF"/>
<rect x="4" y="3" width="145.444" height="208.743" stroke="#007AFF" stroke-width="6"/>
<path d="M152.444 0L266.915 46.7347V261.478L152.444 214.743V0Z" fill="#B0D6FF"/>
<path d="M244.73 146.676C244.73 140.973 250.721 137.254 255.832 139.784C258.453 141.081 260.112 143.752 260.112 146.676V164.495C260.112 170.199 254.121 173.918 249.01 171.388C246.389 170.091 244.73 167.419 244.73 164.495V146.676Z" fill="#007AFF"/>
<path d="M38.9326 131.584L59.8567 110.66" stroke="#007AFF" stroke-width="7" stroke-linecap="round"/>
<path d="M71.2415 139.894L84.9865 128.616" stroke="#007AFF" stroke-width="7" stroke-linecap="round"/>
<path d="M30.6279 99.2789L41.9075 85.5352" stroke="#007AFF" stroke-width="7" stroke-linecap="round"/>
<path d="M60.3596 48.5078C66.1936 48.9602 73.4509 51.7384 81.1265 56.4293M47.2473 61.6201C48.0861 72.4378 56.9217 88.149 71.1196 102.347C90.9525 122.18 113.738 131.549 122.014 123.274C126.205 119.083 125.87 111.169 121.941 101.802C120.671 98.7741 119.026 95.5946 117.037 92.3399M92.6599 80.8081C81.205 69.3532 78.8172 63.1485 78.3642 60.6276C78.205 59.7417 78.632 58.9254 79.2683 58.289C88.6441 48.9133 103.847 48.9155 113.226 58.294L115.174 60.2421C124.552 69.6206 124.555 84.8239 115.179 94.1996C114.543 94.836 113.724 95.2629 112.839 95.1035C111.128 94.7956 107.724 93.5975 102.137 89.2858" stroke="#007AFF" stroke-width="7" stroke-linecap="round"/>
<path d="M86.6185 95.5796C84.6358 97.5623 81.4212 97.5623 79.4385 95.5796C77.4558 93.5969 77.4558 90.3823 79.4385 88.3996C81.4212 86.4169 84.6358 86.4169 86.6185 88.3996C88.6012 90.3823 88.6012 93.5969 86.6185 95.5796Z" fill="#007AFF"/>
<path d="M72.2585 74.0396C70.2758 76.0223 67.0612 76.0223 65.0784 74.0396C63.0957 72.0568 63.0957 68.8422 65.0784 66.8595C67.0612 64.8768 70.2758 64.8768 72.2585 66.8595C74.2412 68.8422 74.2412 72.0568 72.2585 74.0396Z" fill="#007AFF"/>
<path d="M108.159 109.94C106.176 111.922 102.961 111.922 100.979 109.94C98.9958 107.957 98.9958 104.742 100.979 102.76C102.961 100.777 106.176 100.777 108.159 102.76C110.141 104.742 110.141 107.957 108.159 109.94Z" fill="#007AFF"/>
<path d="M127.888 163.868C127.788 163.961 127.691 164.058 127.598 164.159C127.505 164.058 127.408 163.961 127.307 163.868C127.408 163.775 127.505 163.678 127.598 163.577C127.691 163.678 127.788 163.775 127.888 163.868Z" stroke="#007AFF" stroke-width="8"/>
<path d="M28.5035 69.2157C28.4027 69.3087 28.3058 69.4057 28.2128 69.5064C28.1198 69.4057 28.0228 69.3087 27.9221 69.2157C28.0228 69.1227 28.1198 69.0257 28.2128 68.925C28.3058 69.0257 28.4027 69.1227 28.5035 69.2157Z" stroke="#007AFF" stroke-width="8"/>
<mask id="path-14-inside-1_2605_5855" fill="white">
<path d="M98.4454 198.848C98.7161 199.535 99.6877 199.535 99.9584 198.848L101.142 195.846C101.225 195.637 101.391 195.471 101.601 195.388L104.603 194.204C105.289 193.933 105.289 192.962 104.603 192.691L101.601 191.507C101.391 191.424 101.225 191.258 101.142 191.049L99.9584 188.047C99.6877 187.36 98.7161 187.36 98.4454 188.047L97.2613 191.049C97.1787 191.258 97.0128 191.424 96.8032 191.507L93.801 192.691C93.1145 192.962 93.1145 193.933 93.801 194.204L96.8032 195.388C97.0128 195.471 97.1787 195.637 97.2613 195.846L98.4454 198.848Z"/>
</mask>
<path d="M98.4454 198.848C98.7161 199.535 99.6877 199.535 99.9584 198.848L101.142 195.846C101.225 195.637 101.391 195.471 101.601 195.388L104.603 194.204C105.289 193.933 105.289 192.962 104.603 192.691L101.601 191.507C101.391 191.424 101.225 191.258 101.142 191.049L99.9584 188.047C99.6877 187.36 98.7161 187.36 98.4454 188.047L97.2613 191.049C97.1787 191.258 97.0128 191.424 96.8032 191.507L93.801 192.691C93.1145 192.962 93.1145 193.933 93.801 194.204L96.8032 195.388C97.0128 195.471 97.1787 195.637 97.2613 195.846L98.4454 198.848Z" fill="#B0D6FF"/>
<path d="M96.8032 195.388L99.7383 187.946L96.8032 195.388ZM97.2613 195.846L104.703 192.911V192.911L97.2613 195.846ZM93.801 192.691L90.8659 185.249H90.8659L93.801 192.691ZM93.801 194.204L90.8659 201.646H90.8659L93.801 194.204ZM97.2613 191.049L104.703 193.984V193.984L97.2613 191.049ZM96.8032 191.507L99.7383 198.949L99.7383 198.949L96.8032 191.507ZM99.9584 188.047L107.401 185.111L107.401 185.111L99.9584 188.047ZM98.4454 188.047L91.0033 185.111L98.4454 188.047ZM101.601 191.507L98.6655 198.949L98.6655 198.949L101.601 191.507ZM101.142 191.049L93.7004 193.984L93.7004 193.984L101.142 191.049ZM104.603 194.204L107.538 201.646L107.538 201.646L104.603 194.204ZM104.603 192.691L107.538 185.249H107.538L104.603 192.691ZM101.142 195.846L93.7004 192.911L93.7004 192.911L101.142 195.846ZM101.601 195.388L98.6655 187.946H98.6655L101.601 195.388ZM99.9584 198.848L107.401 201.784V201.784L99.9584 198.848ZM98.4454 198.848L91.0033 201.784L91.0033 201.784L98.4454 198.848ZM92.5163 195.913L93.7004 192.911L108.585 198.781L107.401 201.784L92.5163 195.913ZM98.6655 187.946L101.668 186.762L107.538 201.646L104.536 202.83L98.6655 187.946ZM101.668 200.133L98.6655 198.949L104.536 184.065L107.538 185.249L101.668 200.133ZM93.7004 193.984L92.5163 190.982L107.401 185.111L108.585 188.114L93.7004 193.984ZM105.888 190.982L104.703 193.984L89.8192 188.114L91.0033 185.111L105.888 190.982ZM99.7383 198.949L96.7361 200.133L90.8659 185.249L93.8681 184.065L99.7383 198.949ZM96.7361 186.762L99.7383 187.946L93.8681 202.83L90.8659 201.646L96.7361 186.762ZM104.703 192.911L105.888 195.913L91.0033 201.784L89.8192 198.781L104.703 192.911ZM99.7383 187.946C102.01 188.842 103.808 190.64 104.703 192.911L89.8192 198.781C90.5497 200.634 92.0159 202.1 93.8681 202.83L99.7383 187.946ZM96.7361 200.133C102.803 197.74 102.803 189.155 96.7361 186.762L90.8659 201.646C83.4262 198.712 83.4262 188.183 90.8659 185.249L96.7361 200.133ZM104.703 193.984C103.808 196.255 102.01 198.053 99.7383 198.949L93.8681 184.065C92.0159 184.795 90.5497 186.261 89.8192 188.114L104.703 193.984ZM92.5163 190.982C94.909 197.048 103.495 197.048 105.888 190.982L91.0033 185.111C93.9374 177.672 104.466 177.672 107.401 185.111L92.5163 190.982ZM98.6655 198.949C96.3942 198.053 94.5962 196.255 93.7004 193.984L108.585 188.114C107.854 186.261 106.388 184.795 104.536 184.065L98.6655 198.949ZM101.668 186.762C95.601 189.155 95.6011 197.74 101.668 200.133L107.538 185.249C114.978 188.183 114.978 198.712 107.538 201.646L101.668 186.762ZM93.7004 192.911C94.5962 190.64 96.3942 188.842 98.6655 187.946L104.536 202.83C106.388 202.1 107.854 200.634 108.585 198.781L93.7004 192.911ZM107.401 201.784C104.466 209.223 93.9374 209.223 91.0033 201.784L105.888 195.913C103.495 189.847 94.909 189.847 92.5163 195.913L107.401 201.784Z" fill="#007AFF" mask="url(#path-14-inside-1_2605_5855)"/>
</g>
</svg>
