<svg width="17" height="15" viewBox="0 0 17 15" fill="none" xmlns="http://www.w3.org/2000/svg">
<path d="M2.66667 1L1 2.66667" stroke="white" stroke-width="1.66667" stroke-linecap="round"/>
<path d="M14.3333 1L16 2.66667" stroke="white" stroke-width="1.66667" stroke-linecap="round"/>
<path fill-rule="evenodd" clip-rule="evenodd" d="M8.49974 14.3333C12.1816 14.3333 15.1664 11.3486 15.1664 7.66667C15.1664 3.98477 12.1816 1 8.49974 1C4.81784 1 1.83307 3.98477 1.83307 7.66667C1.83307 11.3486 4.81784 14.3333 8.49974 14.3333ZM10.8176 6.10365C11.1052 5.74427 11.0469 5.21986 10.6875 4.93235C10.3281 4.64484 9.80371 4.70311 9.5162 5.0625L8.32681 6.54923L6.4625 5.30637C6.07956 5.05107 5.56217 5.15455 5.30688 5.53749C5.05159 5.92043 5.15506 6.43782 5.538 6.69312L7.87908 8.25383C8.32865 8.55355 8.93276 8.45976 9.2703 8.03784L10.8176 6.10365Z" fill="white"/>
</svg>
