<svg width="42" height="42" viewBox="0 0 42 42" fill="none" xmlns="http://www.w3.org/2000/svg">
<path d="M8.44604 31.9245C8.4332 32.2255 8.42351 32.5273 8.41381 32.8293C8.38191 33.8228 8.34993 34.8188 8.20543 35.7981M8.44604 31.9245L8.14633 31.9113L8.14631 31.9118M8.44604 31.9245C8.45184 31.7931 8.30979 31.6189 8.18804 31.5246L8.44604 31.9245ZM8.20543 35.7981L7.9087 35.7539C7.90869 35.7539 7.90869 35.754 7.90869 35.754M8.20543 35.7981C7.97932 37.3178 7.42563 38.7575 6.71541 40.1343L7.90869 35.754M8.20543 35.7981L7.90865 35.7543C7.90866 35.7542 7.90867 35.7541 7.90869 35.754M7.90869 35.754C8.0504 34.7935 8.08167 33.8211 8.1135 32.8313C8.12313 32.532 8.1328 32.2311 8.1456 31.9285M8.1456 31.9285C8.14591 31.9292 8.14619 31.9299 8.14646 31.9306C8.15073 31.9413 8.14542 31.9336 8.14631 31.9118M8.1456 31.9285C8.14144 31.9186 8.1331 31.9028 8.11872 31.8822C8.08721 31.8369 8.04301 31.7918 8.00493 31.7623M8.1456 31.9285C8.14584 31.9229 8.14607 31.9173 8.14631 31.9118M8.14631 31.9118L8.00493 31.7623M8.00493 31.7623C6.21487 30.3943 4.65164 28.8086 3.39877 26.9291L3.39874 26.929C1.99337 24.8197 1.13008 22.513 0.82281 20.0092C0.236877 15.2756 1.77226 11.2072 4.89076 7.69027C7.85076 4.34732 11.5628 2.2222 15.9377 1.24069C17.6034 0.86635 19.309 0.656012 20.7329 0.707763C24.6814 0.676955 28.1231 1.5016 31.3331 3.19035C34.6648 4.9419 37.3667 7.38444 39.2705 10.634C40.3698 12.5064 41.0518 14.5318 41.2356 16.7022C41.7025 22.2146 39.6126 26.7414 35.5966 30.4176L35.5965 30.4176C32.8263 32.9524 29.4526 34.3444 25.8273 35.1258C23.9683 35.5287 22.0845 35.6703 20.1944 35.5922M8.00493 31.7623L7.21112 40.9999L7.20938 41.2999C7.72295 41.3029 8.26091 41.2494 8.76785 41.1124M20.1944 35.5922L20.2068 35.2924L20.1947 35.5922C20.1946 35.5922 20.1945 35.5922 20.1944 35.5922ZM20.1944 35.5922C19.7213 35.5731 19.2515 35.5227 18.7901 35.4679C18.6915 35.4562 18.5935 35.4443 18.4959 35.4325C18.1333 35.3885 17.7765 35.3453 17.4182 35.3142L17.4442 35.0154L17.4191 35.3143C17.4126 35.3138 17.398 35.3137 17.3765 35.3169C17.3556 35.32 17.333 35.3254 17.3116 35.3328C17.2899 35.3403 17.2734 35.3484 17.2629 35.3549C17.2607 35.3562 17.259 35.3574 17.2578 35.3582M17.2578 35.3582C17.2594 35.3561 17.2611 35.3541 17.2627 35.352L17.2629 35.3517C17.2589 35.3568 17.2561 35.3594 17.2555 35.36C17.2558 35.3597 17.2565 35.3591 17.2578 35.3582ZM17.2578 35.3582C15.0553 38.1618 12.2761 40.1658 8.76785 41.1124M8.76785 41.1124L8.68954 40.8228L8.76769 41.1124C8.76774 41.1124 8.76779 41.1124 8.76785 41.1124ZM9.56552 38.5391C9.60769 38.3566 9.6516 38.1733 9.69566 37.9892C9.88321 37.2061 10.0736 36.411 10.145 35.6193L10.145 35.619C10.2576 34.3558 10.2567 33.0814 10.2557 31.8256C10.2555 31.5456 10.2553 31.2665 10.2564 30.9887V30.9876C10.2564 30.7956 10.1411 30.6392 10.0675 30.552C9.98279 30.4517 9.8806 30.3612 9.80793 30.2982L9.80699 30.2974C9.46974 30.0073 9.13178 29.7336 8.79818 29.4633C8.18088 28.9632 7.57853 28.4753 7.02341 27.9191L7.02329 27.919C4.83499 25.7289 3.42805 23.1217 2.99459 20.0676L9.56552 38.5391ZM9.56552 38.5391C12.2674 37.5086 14.367 35.775 15.8353 33.2998L15.8354 33.2994C15.9258 33.1475 16.0425 33.0125 16.2207 32.9489C16.3865 32.8897 16.5545 32.9129 16.688 32.938C16.8009 32.9593 16.9133 32.9808 17.0253 33.0022C17.6896 33.1292 18.3384 33.2533 18.994 33.3081L18.9942 33.3081C21.8744 33.551 24.7023 33.3162 27.467 32.4634L27.5554 32.7501L27.467 32.4634C30.927 31.3964 33.8435 29.5429 36.0504 26.718L36.2868 26.9027L36.0505 26.718C38.1363 24.0484 39.2281 21.0485 39.1033 17.6297C39.0267 15.5255 38.5135 13.5775 37.4708 11.776C35.0342 7.5713 31.2969 4.98225 26.6461 3.58902C24.5473 2.96157 22.3805 2.68955 20.1846 2.84389C20.0395 2.85434 19.8949 2.86433 19.7507 2.8743C18.9004 2.93305 18.066 2.9907 17.2497 3.13433L17.2495 3.13438C12.8933 3.89719 9.2397 5.89521 6.35615 9.20887C3.62478 12.349 2.4108 15.9513 2.99459 20.0676L9.56552 38.5391Z" fill="black" stroke="black" stroke-width="0.6" stroke-linejoin="round"/>
</svg>
