<svg xmlns="http://www.w3.org/2000/svg" width="17" height="15" viewBox="0 0 17 15" fill="none">
  <path d="M2.66667 1L1 2.66667" stroke="white" stroke-width="1.66667" stroke-linecap="round"/>
  <path d="M14.3333 1L16 2.66667" stroke="white" stroke-width="1.66667" stroke-linecap="round"/>
  <path fill-rule="evenodd" clip-rule="evenodd" d="M8.50065 14.3333C12.1825 14.3333 15.1673 11.3486 15.1673 7.66667C15.1673 3.98477 12.1825 1 8.50065 1C4.81875 1 1.83398 3.98477 1.83398 7.66667C1.83398 11.3486 4.81875 14.3333 8.50065 14.3333ZM10.8186 6.10365C11.1061 5.74427 11.0478 5.21986 10.6884 4.93235C10.329 4.64484 9.80462 4.70311 9.51711 5.0625L8.32772 6.54923L6.46342 5.30637C6.08048 5.05107 5.56309 5.15455 5.30779 5.53749C5.0525 5.92043 5.15598 6.43782 5.53892 6.69312L7.88 8.25383C8.32957 8.55355 8.93368 8.45976 9.27121 8.03784L10.8186 6.10365Z" fill="white"/>
</svg>