<svg width="34" height="34" viewBox="0 0 34 34" fill="none" xmlns="http://www.w3.org/2000/svg">
<path d="M14.45 5.09961H22.95C26.0796 5.09961 28.6167 7.63666 28.6167 10.7663V22.0996" stroke="#69696B" stroke-width="3" stroke-linejoin="round"/>
<path d="M22.2998 17.4529C22.2998 15.6814 22.2963 14.5103 22.171 13.6271C22.0539 12.8022 21.8524 12.4122 21.5712 12.121C21.3692 11.9118 21.1255 11.7164 20.8423 11.5438C20.3789 11.2613 19.7266 11.0634 18.547 10.9578C17.3548 10.851 15.8026 10.8496 13.5998 10.8496C11.397 10.8496 9.84481 10.851 8.6526 10.9578C7.47299 11.0634 6.82066 11.2613 6.35728 11.5438C6.07412 11.7164 5.83042 11.9118 5.62842 12.121C5.34718 12.4122 5.14569 12.8022 5.02864 13.6271C4.90331 14.5103 4.8998 15.6814 4.8998 17.4529V23.3463C4.8998 25.1179 4.90331 26.2889 5.02864 27.1721C5.14569 27.997 5.34718 28.3871 5.62842 28.6782C5.83042 28.8874 6.07412 29.0828 6.35728 29.2554C6.82066 29.5379 7.47299 29.7358 8.6526 29.8414C9.84481 29.9482 11.397 29.9496 13.5998 29.9496C15.8026 29.9496 17.3548 29.9482 18.547 29.8414C19.7266 29.7358 20.3789 29.5379 20.8423 29.2554C21.1255 29.0828 21.3692 28.8874 21.5712 28.6782C21.8524 28.3871 22.0539 27.997 22.171 27.1721C22.2963 26.2889 22.2998 25.1179 22.2998 23.3463V17.4529Z" stroke="#69696B" stroke-width="3" stroke-linejoin="round"/>
</svg>
