<svg width="35" height="32" viewBox="0 0 35 32" fill="none" xmlns="http://www.w3.org/2000/svg">
<g id="crwon" clip-path="url(#clip0_2330_3647)">
<path id="Vector" fill-rule="evenodd" clip-rule="evenodd" d="M18.3343 28.1419H8.543L0.666748 12.6298L7.58549 9.51145L7.18053 14.9947C7.18053 14.9947 8.96855 15.9462 11.6729 14.8627C14.3876 13.7932 14.741 12.1402 14.741 12.1402L11.1238 7.72653L17.4728 0.225719L17.6685 0L17.8641 0.225719L24.2097 7.73L20.5925 12.1437C20.5925 12.1437 20.9459 13.7966 23.6606 14.8662C26.3649 15.9496 28.153 14.9982 28.153 14.9982L27.748 9.51492L34.6667 12.6333L26.7939 28.1454H18.3343V28.1419Z" fill="#F89A1B"/>
<path id="Vector_2" fill-rule="evenodd" clip-rule="evenodd" d="M3.97157 19.1308L1.17456 13.6475L1.21574 13.4878L4.84328 15.3144L3.97157 19.1308Z" fill="#FAAA16"/>
<path id="Vector_3" d="M26.9002 29.1455H8.43652V32H26.9002V29.1455Z" fill="#FDB810"/>
<path id="Vector_4" fill-rule="evenodd" clip-rule="evenodd" d="M13.9585 20.8218L17.888 16.8457L21.8073 20.8218L17.888 24.7841L13.9585 20.8218Z" fill="#FDB810" stroke="#221F20" stroke-width="0.51" stroke-miterlimit="10"/>
<path id="Vector_5" fill-rule="evenodd" clip-rule="evenodd" d="M12.3386 20.8217L17.888 15.2065L23.4374 20.8217L17.888 26.423L12.3386 20.8217ZM14.7821 20.8217L17.888 17.679L20.9939 20.8217L17.888 23.954L14.7821 20.8217Z" fill="#FFD600"/>
<path id="Vector_6" fill-rule="evenodd" clip-rule="evenodd" d="M15.146 6.93476L17.6685 3.72607L20.1738 6.93476L17.6685 10.1469L15.146 6.93476Z" fill="#FAAA16"/>
<path id="Vector_7" fill-rule="evenodd" clip-rule="evenodd" d="M31.3754 19.1308L34.1587 13.6475L34.1175 13.4878L30.49 15.3144L31.3754 19.1308Z" fill="#FAAA16"/>
</g>
<defs>
<clipPath id="clip0_2330_3647">
<rect width="34" height="32" fill="white" transform="translate(0.666748)"/>
</clipPath>
</defs>
</svg>
