<svg width="57" height="56" viewBox="0 0 57 56" fill="none" xmlns="http://www.w3.org/2000/svg">
<g clip-path="url(#clip0_2330_3655)">
<circle cx="28.6667" cy="28" r="27" fill="white" stroke="#E5E7EB" stroke-width="2"/>
<path fill-rule="evenodd" clip-rule="evenodd" d="M44.7136 34.9929C42.0148 41.1773 35.8455 45.5 28.6667 45.5C21.0462 45.5 14.5634 40.6292 12.1616 33.8311C9.01928 33.7404 6.49976 31.1645 6.49976 28.0002C6.49976 24.836 9.01919 22.2602 12.1615 22.1694C14.5631 15.371 21.046 10.5 28.6667 10.5C36.7246 10.5 43.5105 15.9461 45.5444 23.3582C48.5108 23.6327 50.8333 26.1283 50.8333 29.1664C50.8333 32.3881 48.2216 34.9998 45 34.9998C44.904 34.9998 44.8085 34.9974 44.7136 34.9929Z" fill="#E5E7EB"/>
<path fill-rule="evenodd" clip-rule="evenodd" d="M27.0332 25.2016C26.4819 24.0949 25.2855 23.333 23.8744 23.333C23.2565 23.333 22.3016 23.7465 21.9084 24.4184C21.8522 24.5735 21.6276 24.5735 21.5714 24.4184C21.122 23.7982 20.2233 23.3847 19.5492 23.3847C17.6956 23.3847 16.1228 24.7802 16.0667 26.4859V26.5893C16.0667 27.4679 16.4598 28.2949 17.1339 28.9152V28.9669C17.1901 29.0185 19.8863 31.1894 21.122 32.1714C21.459 32.4299 21.9646 32.4299 22.3016 32.1714C22.8207 31.7589 23.5875 31.1367 24.3107 30.5498L24.3108 30.5498C25.3093 29.7395 26.2246 28.9968 26.2897 28.9669V28.9152C26.8858 28.4124 27.2622 27.7076 27.3414 26.9078C27.7304 26.8601 28.1704 26.8331 28.667 26.8331C29.4216 26.8331 30.0454 26.8954 30.5587 26.9983C30.5578 27.0155 30.5571 27.0327 30.5565 27.05V27.1533C30.5565 28.032 30.9497 28.859 31.6238 29.4792V29.5309C31.68 29.5826 34.3762 31.7535 35.6119 32.7355C35.9489 32.9939 36.4545 32.9939 36.7915 32.7355C37.3106 32.323 38.0775 31.7007 38.8007 31.1139C39.7992 30.3036 40.7145 29.5609 40.7796 29.5309V29.4792C41.4537 28.9107 41.8469 28.0837 41.8469 27.1533V27.05C41.7907 25.2926 40.2741 23.8971 38.3643 23.8971C37.7464 23.8971 36.7915 24.3106 36.3983 24.9825C36.3421 25.1376 36.1174 25.1376 36.0613 24.9825C35.6119 24.3623 34.7132 23.9488 34.0391 23.9488C32.8457 23.9488 31.7686 24.5273 31.1378 25.3946C30.537 25.2072 29.7323 25.0831 28.667 25.0831C28.0345 25.0831 27.4939 25.1268 27.0332 25.2016Z" fill="#6B7280"/>
<path d="M25.7498 33.25C25.9442 33.6389 26.7998 34.4167 28.6664 34.4167C30.5331 34.4167 31.3886 33.6389 31.5831 33.25" stroke="#6B7280" stroke-width="1.75" stroke-linecap="round" stroke-linejoin="round"/>
<path d="M25.8584 13.0162C25.2463 13.4958 24.284 15.4282 24.8142 16.7875C25.3444 18.1469 26.1735 18.4837 26.5944 18.5919" stroke="#6B7280" stroke-width="1.39112" stroke-linecap="round"/>
<path d="M29.5771 13.9739C28.9642 14.3917 28.524 16.1891 29.1109 17.445C29.5477 18.3796 30.6649 18.7424 31.0206 18.8338" stroke="#6B7280" stroke-width="1.39112" stroke-linecap="round"/>
<path d="M32.669 14.6125C32.3755 14.9974 32.5907 16.1068 33.0949 16.8577C33.3931 17.3017 34.2958 17.9501 34.5349 17.9335" stroke="#6B7280" stroke-width="1.38833" stroke-linecap="round"/>
</g>
<defs>
<clipPath id="clip0_2330_3655">
<rect width="56" height="56" fill="white" transform="translate(0.666748)"/>
</clipPath>
</defs>
</svg>
