<svg width="20" height="20" viewBox="0 0 20 20" fill="none" xmlns="http://www.w3.org/2000/svg">
<path id="Vector" d="M8.1465 13.2159L9.89277 15.0035L11.6818 13.2585L16.176 8.9179C16.6699 8.43644 16.6792 7.64512 16.1974 7.1516C15.7155 6.65807 14.9236 6.64879 14.4297 7.13026L11.2333 10.2055L11.354 1.25989C11.3605 0.571545 10.8082 0.00844216 10.1193 9.30189e-05C9.42766 -0.00825612 8.86042 0.546498 8.85392 1.23855L8.7323 10.2389L5.59161 6.97998C5.10978 6.48645 4.31788 6.47717 3.82398 6.95864C3.33008 7.44011 3.3208 8.23142 3.80263 8.72495L8.1465 13.2159ZM17.4999 12.5053V17.5018H2.50012V12.5053H0V17.5018C0 18.8812 1.11962 20 2.50012 20H17.4999C18.8804 20 20 18.8812 20 17.5018V12.5053H17.4999Z" fill="#007AFF"/>
</svg>
