<svg width="64" height="64" viewBox="0 0 64 64" fill="none" xmlns="http://www.w3.org/2000/svg">
<g clip-path="url(#clip0_2418_4372)">
<path d="M32.0037 64.0073C49.6788 64.0073 64.0073 49.6788 64.0073 32.0037C64.0073 14.3285 49.6788 0 32.0037 0C14.3285 0 0 14.3285 0 32.0037C0 49.6788 14.3285 64.0073 32.0037 64.0073Z" fill="#F8E049"/>
<path d="M32.0033 13.1577C20.6783 13.1577 11.4927 20.4156 11.4927 29.3749C11.4927 35.2017 15.3845 40.313 21.2259 43.168C20.7951 44.767 19.6707 48.9729 19.4443 49.871C19.1668 50.9882 19.8532 50.9735 20.3059 50.6742C20.6564 50.4405 25.9283 46.8554 28.1991 45.3074C29.4331 45.4899 30.7036 45.5848 32.0033 45.5848C43.3284 45.5848 52.514 38.3269 52.514 29.3676C52.514 20.4083 43.3284 13.1504 32.0033 13.1504" fill="#371C1D"/>
<path d="M17.6929 26.3878H19.8031C19.8031 26.3878 19.8177 32.1854 19.8031 33.5362C19.8031 34.522 22.0009 34.5366 21.9936 33.5508V26.4608C21.9936 26.4608 22.7092 26.4608 24.1038 26.4608C25.4181 26.4608 25.4181 24.3944 24.1038 24.3944C22.6216 24.3944 17.6856 24.3506 17.6856 24.3506C16.4443 24.3506 16.4516 26.3732 17.6856 26.3732" fill="#F8E049"/>
<mask id="mask0_2418_4372" style="mask-type:luminance" maskUnits="userSpaceOnUse" x="16" y="24" width="10" height="11">
<path d="M17.6929 26.3878H19.8031C19.8031 26.3878 19.8177 32.1854 19.8031 33.5362C19.8031 34.522 22.0009 34.5366 21.9936 33.5508V26.4608C21.9936 26.4608 22.7092 26.4608 24.1038 26.4608C25.4181 26.4608 25.4181 24.3944 24.1038 24.3944C22.6216 24.3944 17.6856 24.3506 17.6856 24.3506C16.4443 24.3506 16.4516 26.3732 17.6856 26.3732" fill="white"/>
</mask>
<g mask="url(#mask0_2418_4372)">
<path d="M25.426 24.3652H16.4521V34.5366H25.426V24.3652Z" fill="#F8E049"/>
</g>
<path d="M27.7978 26.7613L28.9733 30.4414H26.5273L27.7978 26.7613ZM26.4834 25.0381C25.965 26.1845 24.0885 31.5878 23.4678 33.0189C23.0151 34.0558 24.9574 34.9028 25.4101 33.8659L25.8336 32.391H29.6962C29.6962 32.391 29.5648 32.4494 30.0759 33.8075C30.4921 34.9028 32.5001 34.1434 32.0839 33.0481C31.4925 31.4783 29.4407 25.8413 29.0683 25.0454C28.893 24.673 28.2797 24.4102 27.6809 24.4102C27.1844 24.4102 26.7025 24.5927 26.498 25.0454" fill="#F8E049"/>
<mask id="mask1_2418_4372" style="mask-type:luminance" maskUnits="userSpaceOnUse" x="23" y="24" width="10" height="11">
<path d="M27.7978 26.7613L28.9733 30.4414H26.5273L27.7978 26.7613ZM26.4834 25.0381C25.965 26.1845 24.0885 31.5878 23.4678 33.0189C23.0151 34.0558 24.9574 34.9028 25.4101 33.8659L25.8336 32.391H29.6962C29.6962 32.391 29.5648 32.4494 30.0759 33.8075C30.4921 34.9028 32.5001 34.1434 32.0839 33.0481C31.4925 31.4783 29.4407 25.8413 29.0683 25.0454C28.893 24.673 28.2797 24.4102 27.6809 24.4102C27.1844 24.4102 26.7025 24.5927 26.498 25.0454" fill="white"/>
</mask>
<g mask="url(#mask1_2418_4372)">
<path d="M32.485 24.4033H23.0073V34.896H32.485V24.4033Z" fill="#F8E049"/>
</g>
<path d="M32.8133 25.3735C32.8133 27.2062 32.8206 33.128 32.8206 33.128C32.8206 33.128 32.6526 34.3035 33.6603 34.3035C34.6679 34.3035 36.9095 34.2889 37.9026 34.2889C38.8956 34.2889 38.8883 32.1787 37.9026 32.1787C36.9168 32.1787 35.0987 32.1714 35.0987 32.1714C35.0987 32.1714 35.106 26.6951 35.0987 25.3662C35.0987 24.7236 34.5292 24.4023 33.9596 24.4023C33.3901 24.4023 32.8133 24.7236 32.8133 25.3735Z" fill="#F8E049"/>
<mask id="mask2_2418_4372" style="mask-type:luminance" maskUnits="userSpaceOnUse" x="32" y="24" width="7" height="11">
<path d="M32.8133 25.3735C32.8133 27.2062 32.8206 33.128 32.8206 33.128C32.8206 33.128 32.6526 34.3035 33.6603 34.3035C34.6679 34.3035 36.9095 34.2889 37.9026 34.2889C38.8956 34.2889 38.8883 32.1787 37.9026 32.1787C36.9168 32.1787 35.0987 32.1714 35.0987 32.1714C35.0987 32.1714 35.106 26.6951 35.0987 25.3662C35.0987 24.7236 34.5292 24.4023 33.9596 24.4023C33.3901 24.4023 32.8133 24.7236 32.8133 25.3735Z" fill="white"/>
</mask>
<g mask="url(#mask2_2418_4372)">
<path d="M38.8885 24.4092H32.6528V34.3104H38.8885V24.4092Z" fill="#F8E049"/>
</g>
<path d="M39.1603 25.0819C39.1822 25.8851 39.1311 33.165 39.1384 33.7053C39.1384 34.5596 41.307 34.5523 41.307 33.7053C41.307 32.7196 41.307 30.843 41.307 30.843L41.9423 30.3319L44.7243 34.1288C45.2865 34.8736 47.0608 33.5301 46.4986 32.7853L43.5414 28.8935C43.5414 28.8935 45.5494 26.7248 46.338 25.9362C46.798 25.4762 45.3741 24.0378 44.9068 24.4978C44.4614 24.9432 41.3143 28.0903 41.3143 28.0903C41.3143 28.0903 41.3436 26.1115 41.3143 25.0235C41.2997 24.6073 40.7959 24.4102 40.2775 24.4102C39.7226 24.4102 39.153 24.6365 39.1603 25.0819Z" fill="#F8E049"/>
<mask id="mask3_2418_4372" style="mask-type:luminance" maskUnits="userSpaceOnUse" x="39" y="24" width="8" height="11">
<path d="M39.1603 25.0819C39.1822 25.8851 39.1311 33.165 39.1384 33.7053C39.1384 34.5596 41.307 34.5523 41.307 33.7053C41.307 32.7196 41.307 30.843 41.307 30.843L41.9423 30.3319L44.7243 34.1288C45.2865 34.8736 47.0608 33.5301 46.4986 32.7853L43.5414 28.8935C43.5414 28.8935 45.5494 26.7248 46.338 25.9362C46.798 25.4762 45.3741 24.0378 44.9068 24.4978C44.4614 24.9432 41.3143 28.0903 41.3143 28.0903C41.3143 28.0903 41.3436 26.1115 41.3143 25.0235C41.2997 24.6073 40.7959 24.4102 40.2775 24.4102C39.7226 24.4102 39.153 24.6365 39.1603 25.0819Z" fill="white"/>
</mask>
<g mask="url(#mask3_2418_4372)">
<path d="M47.0528 24.0449H39.1304V34.8734H47.0528V24.0449Z" fill="#F8E049"/>
</g>
</g>
<defs>
<clipPath id="clip0_2418_4372">
<rect width="64" height="64" fill="white"/>
</clipPath>
</defs>
</svg>
