<svg width="31" height="30" viewBox="0 0 31 30" fill="none" xmlns="http://www.w3.org/2000/svg">
<g clip-path="url(#clip0_55_427)">
<path d="M15.5017 30.0034C23.7869 30.0034 30.5034 23.2869 30.5034 15.0017C30.5034 6.7165 23.7869 0 15.5017 0C7.2165 0 0.5 6.7165 0.5 15.0017C0.5 23.2869 7.2165 30.0034 15.5017 30.0034Z" fill="#F8E049"/>
<path d="M15.5015 6.16773C10.1928 6.16773 5.88708 9.5699 5.88708 13.7696C5.88708 16.5009 7.71139 18.8968 10.4495 20.235C10.2476 20.9846 9.72051 22.9561 9.61441 23.3771C9.48435 23.9008 9.80608 23.8939 10.0183 23.7536C10.1826 23.6441 12.6538 21.9635 13.7182 21.2379C14.2967 21.3235 14.8922 21.368 15.5015 21.368C20.8101 21.368 25.1158 17.9658 25.1158 13.7661C25.1158 9.56647 20.8101 6.16431 15.5015 6.16431" fill="#371C1D"/>
<path d="M8.79364 12.3695H9.7828C9.7828 12.3695 9.78964 15.0871 9.7828 15.7203C9.7828 16.1824 10.813 16.1892 10.8096 15.7272V12.4037C10.8096 12.4037 11.145 12.4037 11.7988 12.4037C12.4149 12.4037 12.4149 11.4351 11.7988 11.4351C11.104 11.4351 8.79021 11.4146 8.79021 11.4146C8.20836 11.4146 8.21178 12.3626 8.79021 12.3626" fill="#F8E049"/>
<mask id="mask0_55_427" style="mask-type:luminance" maskUnits="userSpaceOnUse" x="8" y="11" width="5" height="6">
<path d="M8.79364 12.3695H9.7828C9.7828 12.3695 9.78964 15.0871 9.7828 15.7203C9.7828 16.1824 10.813 16.1892 10.8096 15.7272V12.4037C10.8096 12.4037 11.145 12.4037 11.7988 12.4037C12.4149 12.4037 12.4149 11.4351 11.7988 11.4351C11.104 11.4351 8.79021 11.4146 8.79021 11.4146C8.20836 11.4146 8.21178 12.3626 8.79021 12.3626" fill="white"/>
</mask>
<g mask="url(#mask0_55_427)">
<path d="M12.4187 11.4214H8.21216V16.1892H12.4187V11.4214Z" fill="#F8E049"/>
</g>
<path d="M13.5302 12.5442L14.0813 14.2693H12.9347L13.5302 12.5442ZM12.9142 11.7365C12.6711 12.2739 11.7915 14.8067 11.5006 15.4775C11.2884 15.9635 12.1988 16.3606 12.411 15.8745L12.6095 15.1832H14.4201C14.4201 15.1832 14.3585 15.2105 14.5981 15.8472C14.7932 16.3606 15.7345 16.0046 15.5394 15.4912C15.2621 14.7553 14.3004 12.113 14.1258 11.7399C14.0437 11.5654 13.7561 11.4421 13.4755 11.4421C13.2427 11.4421 13.0168 11.5277 12.921 11.7399" fill="#F8E049"/>
<mask id="mask1_55_427" style="mask-type:luminance" maskUnits="userSpaceOnUse" x="11" y="11" width="5" height="6">
<path d="M13.5302 12.5442L14.0813 14.2693H12.9347L13.5302 12.5442ZM12.9142 11.7365C12.6711 12.2739 11.7915 14.8067 11.5006 15.4775C11.2884 15.9635 12.1988 16.3606 12.411 15.8745L12.6095 15.1832H14.4201C14.4201 15.1832 14.3585 15.2105 14.5981 15.8472C14.7932 16.3606 15.7345 16.0046 15.5394 15.4912C15.2621 14.7553 14.3004 12.113 14.1258 11.7399C14.0437 11.5654 13.7561 11.4421 13.4755 11.4421C13.2427 11.4421 13.0168 11.5277 12.921 11.7399" fill="white"/>
</mask>
<g mask="url(#mask1_55_427)">
<path d="M15.7275 11.4387H11.2848V16.3571H15.7275V11.4387Z" fill="#F8E049"/>
</g>
<path d="M15.8812 11.8939C15.8812 12.753 15.8846 15.5289 15.8846 15.5289C15.8846 15.5289 15.8059 16.0799 16.2782 16.0799C16.7506 16.0799 17.8013 16.0731 18.2668 16.0731C18.7323 16.0731 18.7289 15.0839 18.2668 15.0839C17.8048 15.0839 16.9525 15.0805 16.9525 15.0805C16.9525 15.0805 16.9559 12.5135 16.9525 11.8905C16.9525 11.5893 16.6855 11.4387 16.4186 11.4387C16.1516 11.4387 15.8812 11.5893 15.8812 11.8939Z" fill="#F8E049"/>
<mask id="mask2_55_427" style="mask-type:luminance" maskUnits="userSpaceOnUse" x="15" y="11" width="4" height="6">
<path d="M15.8812 11.8939C15.8812 12.753 15.8846 15.5289 15.8846 15.5289C15.8846 15.5289 15.8059 16.0799 16.2782 16.0799C16.7506 16.0799 17.8013 16.0731 18.2668 16.0731C18.7323 16.0731 18.7289 15.0839 18.2668 15.0839C17.8048 15.0839 16.9525 15.0805 16.9525 15.0805C16.9525 15.0805 16.9559 12.5135 16.9525 11.8905C16.9525 11.5893 16.6855 11.4387 16.4186 11.4387C16.1516 11.4387 15.8812 11.5893 15.8812 11.8939Z" fill="white"/>
</mask>
<g mask="url(#mask2_55_427)">
<path d="M18.7289 11.4421H15.8059V16.0833H18.7289V11.4421Z" fill="#F8E049"/>
</g>
<path d="M18.8563 11.757C18.8666 12.1335 18.8426 15.5459 18.846 15.7992C18.846 16.1996 19.8626 16.1962 19.8626 15.7992C19.8626 15.3371 19.8626 14.4575 19.8626 14.4575L20.1604 14.2179L21.4644 15.9977C21.728 16.3468 22.5597 15.717 22.2961 15.3679L20.9099 13.5436C20.9099 13.5436 21.8512 12.5271 22.2208 12.1574C22.4365 11.9418 21.769 11.2675 21.55 11.4832C21.3412 11.6919 19.866 13.1671 19.866 13.1671C19.866 13.1671 19.8797 12.2396 19.866 11.7296C19.8592 11.5345 19.623 11.4421 19.38 11.4421C19.1199 11.4421 18.8529 11.5482 18.8563 11.757Z" fill="#F8E049"/>
<mask id="mask3_55_427" style="mask-type:luminance" maskUnits="userSpaceOnUse" x="18" y="11" width="5" height="6">
<path d="M18.8563 11.757C18.8666 12.1335 18.8426 15.5459 18.846 15.7992C18.846 16.1996 19.8626 16.1962 19.8626 15.7992C19.8626 15.3371 19.8626 14.4575 19.8626 14.4575L20.1604 14.2179L21.4644 15.9977C21.728 16.3468 22.5597 15.717 22.2961 15.3679L20.9099 13.5436C20.9099 13.5436 21.8512 12.5271 22.2208 12.1574C22.4365 11.9418 21.769 11.2675 21.55 11.4832C21.3412 11.6919 19.866 13.1671 19.866 13.1671C19.866 13.1671 19.8797 12.2396 19.866 11.7296C19.8592 11.5345 19.623 11.4421 19.38 11.4421C19.1199 11.4421 18.8529 11.5482 18.8563 11.757Z" fill="white"/>
</mask>
<g mask="url(#mask3_55_427)">
<path d="M22.5558 11.271H18.8422V16.3469H22.5558V11.271Z" fill="#F8E049"/>
</g>
</g>
<defs>
<clipPath id="clip0_55_427">
<rect width="30" height="30" fill="white" transform="translate(0.5)"/>
</clipPath>
</defs>
</svg>
