<svg xmlns="http://www.w3.org/2000/svg" width="87" height="88" viewBox="0 0 87 88" fill="none">
  <path d="M42.4241 0.017036C50.8209 -0.0515348 58.1206 1.72507 64.9278 5.35933C71.9968 9.13072 77.7131 14.3795 81.7401 21.355C84.059 25.3633 85.4928 29.6895 85.8793 34.3211C86.8642 46.1216 82.4694 55.8087 73.9604 63.7131C68.1132 69.1426 60.9756 72.1411 53.252 73.8304C49.3123 74.6969 45.3165 75.0023 41.302 74.834C39.3197 74.753 37.3436 74.4039 35.3613 74.2293C35.0683 74.2044 34.632 74.3416 34.4636 74.5597C29.8008 80.5877 23.9349 84.8765 16.5355 86.9025C15.5132 87.183 14.416 87.2952 13.3563 87.289C12.0161 87.2827 11.6732 86.6157 12.2903 85.4002C13.8176 82.3955 15.0082 79.2537 15.4945 75.9374C15.8997 73.1509 15.8934 70.3021 16.0119 67.4845C16.0243 67.1977 15.7189 66.8175 15.4571 66.6118C11.6545 63.6632 8.34441 60.2534 5.69508 56.2202C2.72784 51.7007 0.907592 46.7636 0.259286 41.4026C-0.974988 31.2853 2.24784 22.5893 8.84934 15.034C15.1205 7.84658 22.9812 3.27727 32.2632 1.16404C35.8164 0.353656 39.4319 -0.0951708 42.4241 0.017036ZM17.5391 82.8693C17.7511 82.8132 18.0378 82.7633 18.2996 82.6636C24.4087 80.382 29.1588 76.461 32.4564 70.8195C32.7743 70.2772 33.0611 70.2335 33.6159 70.3395C35.2803 70.6574 36.9509 71.0128 38.6402 71.1561C44.9051 71.6922 51.0703 71.1748 57.1045 69.286C64.6535 66.9234 71.0431 62.8092 75.8804 56.5256C80.4497 50.5911 82.8559 43.8961 82.5817 36.2661C82.4133 31.5783 81.285 27.2209 78.9848 23.1877C73.6487 13.8434 65.4639 8.10216 55.3341 5.0227C50.7523 3.63259 46.0147 3.02792 41.2085 3.37077C39.0766 3.52661 36.926 3.63882 34.8314 4.01284C25.325 5.70218 17.3334 10.1343 11.0311 17.4839C5.04677 24.4656 2.36628 32.5134 3.65042 41.7019C4.60418 48.5215 7.70234 54.3376 12.4961 59.2061C14.3537 61.0949 16.5106 62.6783 18.5178 64.43C18.8295 64.7042 19.2596 65.1032 19.2596 65.4398C19.2472 68.7873 19.3157 72.1535 19.0228 75.4886C18.8046 77.9446 18.069 80.3509 17.5516 82.8693H17.5391Z" fill="#3E82F1"/>
  <path d="M72.1776 38.934C72.1776 41.8701 72.2088 44.8062 72.1714 47.736C72.1153 52.1059 70.2389 55.603 66.4613 57.7037C60.5206 61.0076 54.4552 64.0933 48.3773 67.1416C44.5124 69.0803 40.5789 68.7374 36.7951 66.7925C31.3032 63.9562 25.8487 61.0575 20.388 58.1588C15.9994 55.8274 13.8176 52.1183 13.7865 47.1688C13.7553 41.4213 13.7553 35.6738 13.8176 29.9263C13.8675 25.3321 15.9246 21.6355 19.7708 19.2979C25.3936 15.888 31.2097 12.8086 36.9946 9.67302C38.1603 9.04341 39.5192 8.68186 40.8283 8.41381C43.3841 7.89018 45.915 8.12706 48.2339 9.36756C54.0562 12.4782 59.9159 15.5389 65.6322 18.8366C70.027 21.3675 72.2026 25.3633 72.1776 30.4874C72.1652 33.2988 72.1776 36.1102 72.1776 38.9216H72.1714L72.1776 38.934ZM43.0039 37.4504C44.7555 37.4317 46.2392 37.0078 47.623 36.2598C52.822 33.4609 58.0146 30.6557 63.1886 27.8193C63.8244 27.4703 64.4291 26.984 64.8966 26.4355C66.1808 24.9269 65.8878 22.8885 64.2795 21.729C63.8431 21.4111 63.3881 21.1119 62.9143 20.8563C57.9897 18.1758 53.0277 15.5639 48.1467 12.8148C44.581 10.8138 41.0963 10.82 37.5556 12.7462C34.9624 14.1551 32.3816 15.6013 29.7946 17.0226C27.3822 18.3503 24.9573 19.6657 22.5511 21.0059C21.6098 21.5295 20.8056 22.2152 20.469 23.2999C19.9828 24.8396 20.7869 26.61 22.5074 27.5513C27.8996 30.5123 33.3104 33.4359 38.7151 36.372C40.1114 37.1263 41.62 37.4068 43.0101 37.4504H43.0039ZM68.9735 40.0623C68.9735 40.0623 68.9486 40.0623 68.9361 40.0623C68.9361 37.2011 68.9361 34.346 68.9361 31.4848C68.9361 30.3128 68.4374 29.7456 67.253 29.7393C66.6359 29.7393 65.9813 29.8952 65.4078 30.1258C64.6847 30.4188 64.0177 30.8552 63.3258 31.2292C58.6692 33.7414 54.0064 36.2473 49.3622 38.7782C46.7441 40.2057 44.8615 42.2878 44.768 45.3672C44.6246 50.0488 44.7181 54.7303 44.7555 59.418C44.768 61.0014 45.728 62.192 47.2553 62.6097C48.7389 63.0086 50.1851 62.8029 51.5503 62.0798C53.0962 61.2632 54.6422 60.4466 56.1819 59.6175C59.0868 58.0591 62.0478 56.5754 64.8842 54.8923C67.5647 53.3027 69.0171 50.8841 68.9797 47.6737C68.9548 45.1366 68.9797 42.5932 68.9797 40.0561L68.9735 40.0623ZM17.0592 39.4514H17.0716C17.0716 42.0384 17.0779 44.6317 17.0716 47.2186C17.0592 50.9215 18.6862 53.6394 21.9339 55.3848C24.3027 56.6503 26.684 57.8845 29.0653 59.125C31.2034 60.2409 33.298 61.4564 35.5109 62.4102C38.6216 63.7504 41.3457 61.8616 41.3644 58.483C41.3893 54.3874 41.4143 50.2919 41.3831 46.2026C41.3644 43.653 40.4106 41.4275 38.3223 39.9439C36.6081 38.7283 34.7068 37.7683 32.8554 36.7585C28.7536 34.5206 24.6394 32.3139 20.5126 30.1134C20.0887 29.8889 19.5963 29.7393 19.1163 29.6832C17.7199 29.5274 17.0529 30.1508 17.0529 31.5346C17.0529 34.1715 17.0529 36.8146 17.0529 39.4514H17.0592Z" fill="#3E82F1"/>
  <path d="M53.4702 54.8799C53.3393 56.1329 52.6536 57.4045 51.3445 58.2461C49.9107 59.1687 48.5393 58.4082 48.477 56.7188C48.4147 55.0669 49.5243 53.3651 51.0079 52.8352C52.4292 52.3303 53.4764 53.0659 53.4764 54.8799H53.4702Z" fill="#3E82F1"/>
  <path d="M65.308 36.933C65.308 38.3979 64.0301 40.2306 62.6712 40.7355C61.3247 41.2342 60.1029 40.2244 60.24 38.722C60.3834 37.1449 61.2125 36.0166 62.5777 35.2748C64.0675 34.4706 65.3143 35.2374 65.308 36.933Z" fill="#3E82F1"/>
  <path d="M59.3985 45.6976C59.2925 47.3121 58.5195 48.5402 57.117 49.3319C56.4499 49.7059 55.6894 49.7682 55.0162 49.2695C54.2931 48.7334 54.3305 47.9168 54.4676 47.175C54.7045 45.8535 55.4401 44.8249 56.5933 44.1143C57.2416 43.7153 57.9211 43.5782 58.6193 43.9771C59.2801 44.3574 59.4608 44.9683 59.3985 45.6976Z" fill="#3E82F1"/>
  <path d="M20.7993 49.0141C20.8056 47.4307 22.1146 46.558 23.5796 47.1689C25.0569 47.7798 26.1354 49.438 26.0917 51.0151C26.0481 52.4115 24.8512 53.2468 23.5297 52.798C22.0461 52.293 20.7993 50.5601 20.8055 49.0141H20.7993Z" fill="#3E82F1"/>
  <path d="M32.5188 54.9111C32.4938 54.0446 32.7058 53.3838 33.3977 52.9786C34.1395 52.5423 34.8876 52.6981 35.5546 53.1407C36.9509 54.0757 37.8112 55.3225 37.6304 57.0929C37.512 58.2773 36.5084 58.9443 35.3614 58.6264C33.8154 58.2025 32.5188 56.457 32.5188 54.9111Z" fill="#3E82F1"/>
  <path d="M25.9547 38.7659C25.9671 40.4739 24.5022 41.3404 23.0186 40.4988C21.4228 39.595 20.4628 37.8121 20.7932 36.3659C21.0363 35.2875 21.9339 34.7389 23.0186 35.0007C24.5708 35.381 25.9484 37.1389 25.9547 38.7659Z" fill="#3E82F1"/>
  <path d="M37.8111 45.1242C37.7924 46.533 36.7327 47.3059 35.3612 46.907C33.7031 46.4208 32.4439 44.7127 32.5124 43.0296C32.5685 41.6894 33.6033 40.9413 34.8937 41.3154C36.4085 41.7517 37.8298 43.6031 37.8111 45.1242Z" fill="#3E82F1"/>
  <path d="M31.7457 47.524C31.7769 49.2321 30.5738 50.03 29.059 49.2446C27.5879 48.4778 26.6964 47.2685 26.7151 45.5293C26.7276 44.1641 27.7811 43.4223 29.0715 43.8586C30.4678 44.3262 31.7208 46.0467 31.7457 47.524Z" fill="#3E82F1"/>
  <path d="M42.9789 25.7996C44.9413 25.7996 46.5321 24.7 46.5321 23.3435C46.5321 21.9871 44.9413 20.8875 42.9789 20.8875C41.0165 20.8875 39.4257 21.9871 39.4257 23.3435C39.4257 24.7 41.0165 25.7996 42.9789 25.7996Z" fill="#3E82F1"/>
</svg>