<svg xmlns="http://www.w3.org/2000/svg" width="19" height="20" viewBox="0 0 19 20" fill="none">
  <g clip-path="url(#clip0_3164_10162)">
    <path d="M16.4062 8.16117C16.4062 13.6216 9.375 18.302 9.375 18.302C9.375 18.302 2.34375 13.6216 2.34375 8.16117C2.34375 6.29921 3.08454 4.5135 4.40316 3.1969C5.72177 1.88029 7.5102 1.14062 9.375 1.14062C11.2398 1.14063 13.0282 1.88029 14.3468 3.1969C15.6655 4.5135 16.4062 6.29921 16.4062 8.16117Z" stroke="#757575" stroke-linecap="round" stroke-linejoin="round"/>
    <path d="M9.375 10.5007C10.6694 10.5007 11.7188 9.45294 11.7188 8.1605C11.7188 6.86805 10.6694 5.82031 9.375 5.82031C8.08058 5.82031 7.03125 6.86805 7.03125 8.1605C7.03125 9.45294 8.08058 10.5007 9.375 10.5007Z" stroke="#757575" stroke-linecap="round" stroke-linejoin="round"/>
  </g>
  <defs>
    <clipPath id="clip0_3164_10162">
      <rect width="18.75" height="18.7215" fill="white" transform="translate(0 0.361328)"/>
    </clipPath>
  </defs>
</svg>