<svg xmlns="http://www.w3.org/2000/svg" width="157" height="48" viewBox="0 0 157 48" fill="none">
  <rect x="40.6284" y="19.8488" width="35.7907" height="3.97674" fill="#0062CC"/>
  <rect x="40.6284" y="23.8256" width="3.53488" height="22.093" fill="#0062CC"/>
  <rect x="54.3267" y="23.8256" width="3.53488" height="22.093" fill="#0062CC"/>
  <rect x="76.4192" y="23.8256" width="3.53488" height="22.093" fill="#E6F2FF"/>
  <rect x="91.884" y="23.8256" width="3.53488" height="22.093" fill="#E6F2FF"/>
  <rect x="76.4192" y="19.8488" width="19" height="3.97674" fill="#E6F2FF"/>
  <rect x="0.419434" y="12.7791" width="16.3488" height="16.1279" fill="#0062CC"/>
  <rect x="0.419434" y="28.907" width="16.3488" height="3.97674" fill="#004999"/>
  <rect x="16.7684" y="28.907" width="10.6047" height="3.97674" fill="#0062CC"/>
  <rect x="13.2334" y="32.8837" width="3.53488" height="13.2558" fill="#0062CC"/>
  <rect x="0.419434" y="32.8837" width="3.53488" height="13.2558" fill="#0062CC"/>
  <rect x="23.838" y="32.8837" width="3.53488" height="13.2558" fill="#0062CC"/>
  <path d="M58.7192 18.1107H64.6642H76.468V19.868H58.7192V18.1107Z" fill="#004999"/>
  <path d="M64.6941 18.1108L65.0456 9.5H77.083L76.468 18.1108H64.6941Z" fill="#E6F2FF"/>
  <path d="M66.0125 17.0564L66.4518 10.6422H75.8533L75.3261 17.0564H66.0125Z" fill="#D9EBFF"/>
  <path d="M115.901 29.5693C114.379 29.8853 113.133 30.5677 112.112 31.6696C111.315 32.5279 110.958 33.2666 110.985 34.0409C111.009 34.7439 111.258 35.2237 111.764 35.5707C112.641 36.158 113.777 36.0819 114.62 35.385L115.051 35.0209L115.126 35.4362C115.223 35.922 115.564 36.4287 115.912 36.5882C116.547 36.879 117.655 36.549 118.146 35.907C118.388 35.6015 118.388 35.6015 118.506 35.8008C118.602 35.9704 118.589 36.1546 118.434 36.6505C117.578 39.572 113.892 42.5951 108.496 44.8618C107.373 45.325 104.499 46.9396 105.083 46.9162C105.506 46.8993 110.292 44.5976 111.924 43.7059C115.476 41.7681 118.306 39.0532 118.891 37.0301L119.045 36.524L119.639 36.5104C119.992 36.4963 120.282 36.4439 120.36 36.3591C120.739 35.9461 120.723 36.365 120.327 37.7378C119.345 41.1235 117.338 43.9891 114.536 46.0397C113.798 46.5794 113.58 46.5088 113.774 46.5827C113.937 46.6476 114.267 46.7239 114.74 46.4091C116.839 45.0089 118.958 42.4551 120.073 40.0129C120.457 39.1609 121.166 36.9288 121.155 36.6028C121.146 36.3583 121.267 36.3534 121.507 36.5989C121.988 37.1 122.963 37.0099 123.527 36.4058L123.848 36.0665L124.001 36.4175C124.089 36.618 124.216 36.8067 124.278 36.8349C124.422 36.9209 124.463 38.1232 124.366 39.0861C124.03 42.2113 122.487 45.0788 120.16 46.8961C120.125 46.9166 121.521 46.8254 121.796 46.9164C121.796 46.9164 120.751 47.0765 121.676 46.1314C123.73 44.0291 124.884 41.2487 124.916 38.3703L124.935 37.1759L125.428 37.1561C125.982 37.134 126.606 36.8335 126.836 36.4672C127.218 35.8806 126.772 35.7964 126.257 36.3578C125.975 36.6649 125.847 36.7313 125.474 36.7462C125.112 36.7607 124.969 36.7052 124.718 36.4602C124.426 36.176 124.414 36.1254 124.382 35.1983C124.349 34.2406 124.349 34.2304 124.108 34.2707C123.918 34.2987 123.841 34.4242 123.717 34.8985C123.556 35.5068 123.253 36.0597 122.92 36.3587C122.383 36.8393 121.681 36.3879 121.539 35.4652C121.488 35.1611 121.47 34.6619 121.49 34.355C121.51 34.0482 121.51 33.7625 121.488 33.7124C121.413 33.5929 121.052 33.6482 121.017 33.7822C120.999 33.8544 120.911 34.2354 120.834 34.6262C120.643 35.501 120.151 36.1431 119.647 36.1632C119.184 36.1817 118.981 35.8328 118.875 34.827C118.81 34.1154 118.766 34.005 118.615 34.011C118.484 34.0162 118.379 34.1735 118.252 34.5867C117.817 36.0018 116.713 36.7296 116.005 36.0641C115.744 35.8195 115.732 35.7486 115.687 34.7607C115.657 33.8947 115.621 33.7125 115.489 33.6974C115.398 33.6807 115.251 33.7988 115.145 33.956C114.448 35.0654 113.612 35.6804 112.943 35.5745C112.082 35.4356 111.428 34.6251 111.521 33.8052C111.694 32.4107 113.372 30.7724 115.286 30.1551C116.183 29.8641 119.525 29.7202 120.893 29.9307C122.707 30.1947 124.012 30.6322 125.269 31.4083C126.907 32.414 127.785 33.6032 128.135 35.2726C128.777 38.379 127.063 43.3244 124.331 46.219C123.815 46.76 123.78 46.9144 124.163 46.8991C124.535 46.8842 125.832 45.3224 126.679 43.8805C128.859 40.1714 129.432 35.7614 128.039 33.3889C126.893 31.4249 124.314 30.0182 121.011 29.5586C119.735 29.3853 116.802 29.3904 115.901 29.5693Z" fill="#004999" stroke="#004999" stroke-width="0.8"/>
  <path d="M134.616 35.3954C133.556 35.6107 132.687 36.074 131.976 36.8214C131.42 37.4036 131.17 37.9044 131.188 38.429C131.205 38.9053 131.378 39.2302 131.73 39.465C132.341 39.8622 133.133 39.8098 133.72 39.3369L134.021 39.0899L134.073 39.3712C134.14 39.7003 134.377 40.0434 134.619 40.1512C135.062 40.3478 135.834 40.1234 136.177 39.6879C136.345 39.4807 136.345 39.4807 136.427 39.6157C136.494 39.7305 136.484 39.8554 136.377 40.1915C135.778 42.1717 133.208 44.2229 129.448 45.7629C128.665 46.0776 126.662 47.1738 127.068 47.1576C127.363 47.1458 130.699 45.5825 131.837 44.977C134.313 43.6613 136.286 41.8196 136.695 40.4483L136.802 40.1053L137.216 40.0957C137.462 40.0858 137.664 40.0501 137.718 39.9926C137.983 39.7124 137.971 39.9963 137.695 40.9268C137.008 43.2216 135.608 45.1648 133.654 46.5564C133.14 46.9226 132.988 46.875 133.123 46.9249C133.237 46.9687 133.467 47.0202 133.796 46.8065C135.26 45.8562 136.738 44.1242 137.516 42.4685C137.784 41.891 138.28 40.378 138.272 40.1571C138.266 39.9914 138.35 39.9881 138.518 40.1542C138.852 40.4933 139.532 40.4316 139.925 40.0218L140.149 39.7917L140.255 40.0293C140.316 40.1652 140.405 40.2929 140.448 40.312C140.548 40.3702 140.576 41.1847 140.507 41.8373C140.272 43.9551 139.194 45.8992 137.572 47.1323C137.548 47.1463 138.52 47.0834 138.712 47.1448C138.712 47.1448 137.984 47.2541 138.629 46.6131C140.062 45.187 140.867 43.3022 140.891 41.3519L140.905 40.5425L141.249 40.5288C141.634 40.5133 142.07 40.3092 142.23 40.0609C142.497 39.6631 142.186 39.6064 141.827 39.9872C141.63 40.1955 141.541 40.2406 141.281 40.2509C141.029 40.2611 140.929 40.2236 140.755 40.0577C140.551 39.8654 140.543 39.8312 140.521 39.203C140.499 38.5541 140.499 38.5472 140.331 38.5746C140.198 38.5938 140.145 38.6789 140.058 39.0003C139.946 39.4127 139.734 39.7875 139.502 39.9903C139.127 40.3164 138.639 40.0111 138.54 39.386C138.505 39.18 138.493 38.8417 138.507 38.6338C138.521 38.4259 138.521 38.2323 138.506 38.1984C138.454 38.1175 138.203 38.1552 138.178 38.2461C138.165 38.2949 138.104 38.5532 138.05 38.818C137.916 39.411 137.573 39.8464 137.222 39.8604C136.899 39.8733 136.758 39.637 136.685 38.9556C136.64 38.4735 136.61 38.3987 136.504 38.4029C136.413 38.4065 136.34 38.5132 136.251 38.7932C135.947 39.7524 135.178 40.2464 134.684 39.7961C134.503 39.6305 134.494 39.5825 134.464 38.9131C134.444 38.3264 134.418 38.203 134.327 38.1928C134.263 38.1815 134.161 38.2617 134.087 38.3683C133.6 39.1205 133.018 39.5379 132.552 39.4667C131.952 39.3732 131.497 38.8245 131.562 38.2689C131.684 37.3239 132.854 36.2125 134.187 35.7928C134.813 35.5949 137.141 35.4948 138.094 35.6364C139.358 35.814 140.267 36.1094 141.142 36.6343C142.282 37.3145 142.893 38.1195 143.136 39.2504C143.581 41.3548 142.384 44.707 140.478 46.6704C140.119 47.0373 140.094 47.142 140.361 47.1313C140.62 47.121 141.525 46.0617 142.116 45.0841C143.637 42.5692 144.039 39.5806 143.071 37.9742C142.273 36.6443 140.477 35.6931 138.177 35.3842C137.288 35.2677 135.244 35.2735 134.616 35.3954Z" fill="#004999" stroke="#004999" stroke-width="0.8"/>
  <path d="M149.561 38.3034C148.747 38.4678 148.08 38.8215 147.534 39.3918C147.107 39.836 146.915 40.2181 146.929 40.6183C146.941 40.9817 147.074 41.2295 147.345 41.4085C147.813 41.7114 148.421 41.6713 148.873 41.3104L149.103 41.1219L149.143 41.3365C149.195 41.5876 149.377 41.8492 149.563 41.9314C149.903 42.0813 150.495 41.9099 150.759 41.5777C150.888 41.4196 150.888 41.4196 150.951 41.5226C151.003 41.6101 150.995 41.7054 150.912 41.9618C150.452 43.4726 148.479 45.0379 145.591 46.2134C144.99 46.4537 143.451 47.2903 143.764 47.2778C143.99 47.2688 146.552 46.0756 147.425 45.6134C149.327 44.6092 150.842 43.2039 151.156 42.1577L151.239 41.896L151.557 41.8885C151.745 41.881 151.901 41.8537 151.942 41.8098C152.145 41.596 152.137 41.8126 151.924 42.5225C151.397 44.2732 150.321 45.7559 148.821 46.8179C148.426 47.0974 148.309 47.0611 148.413 47.0991C148.5 47.1326 148.677 47.1717 148.93 47.0087C150.053 46.2834 151.189 44.9618 151.787 43.6987C151.993 43.258 152.373 42.1037 152.367 41.9352C152.363 41.8088 152.428 41.8062 152.556 41.9329C152.813 42.1916 153.335 42.1443 153.637 41.8317L153.808 41.656L153.89 41.8373C153.937 41.9409 154.005 42.0384 154.038 42.0529C154.115 42.0973 154.137 42.7187 154.084 43.2165C153.902 44.8321 153.075 46.3155 151.829 47.2565C151.81 47.2671 152.557 47.219 152.704 47.2658C152.704 47.2658 152.145 47.3493 152.641 46.8602C153.741 45.772 154.36 44.334 154.378 42.8461L154.389 42.2287L154.653 42.2181C154.949 42.2063 155.284 42.0505 155.407 41.861C155.612 41.5575 155.373 41.5143 155.097 41.8048C154.946 41.9638 154.877 41.9982 154.678 42.0062C154.484 42.0139 154.408 41.9854 154.274 41.8589C154.118 41.7122 154.112 41.6861 154.095 41.2069C154.078 40.7119 154.078 40.7066 153.949 40.7276C153.847 40.7422 153.806 40.8071 153.739 41.0524C153.653 41.367 153.49 41.653 153.312 41.8077C153.024 42.0566 152.649 41.8237 152.574 41.3469C152.547 41.1898 152.538 40.9317 152.548 40.7731C152.559 40.6145 152.559 40.4668 152.548 40.4409C152.508 40.3792 152.315 40.408 152.295 40.4774C152.286 40.5146 152.239 40.7116 152.197 40.9137C152.094 41.3661 151.831 41.6983 151.561 41.7091C151.314 41.719 151.205 41.5388 151.149 41.0189C151.115 40.6512 151.091 40.5941 151.011 40.5973C150.941 40.6001 150.884 40.6815 150.816 40.8952C150.582 41.627 149.992 42.0039 149.613 41.6605C149.474 41.5342 149.467 41.4976 149.444 40.987C149.428 40.5394 149.409 40.4452 149.339 40.4375C149.29 40.4289 149.211 40.4901 149.155 40.5714C148.781 41.1454 148.333 41.4639 147.976 41.4096C147.515 41.3384 147.166 40.92 147.216 40.4961C147.309 39.7752 148.208 38.9271 149.232 38.6066C149.712 38.4556 151.5 38.3787 152.232 38.4866C153.202 38.6217 153.9 38.8469 154.572 39.2472C155.447 39.7659 155.916 40.3799 156.102 41.2426C156.444 42.8478 155.524 45.4053 154.06 46.9035C153.784 47.1835 153.765 47.2634 153.97 47.2552C154.169 47.2472 154.864 46.4389 155.318 45.693C156.487 43.7742 156.796 41.4943 156.052 40.269C155.44 39.2546 154.061 38.5293 152.295 38.2942C151.613 38.2055 150.043 38.2103 149.561 38.3034Z" fill="#004999" stroke="#004999" stroke-width="0.8"/>
  <circle cx="141.788" cy="10.3646" r="5.70274" fill="#004999"/>
  <path d="M134.049 10.366L132.419 10.366" stroke="#004999" stroke-width="1.62936" stroke-linecap="round"/>
  <path d="M150.749 10.366L149.12 10.366" stroke="#004999" stroke-width="1.62936" stroke-linecap="round"/>
  <path d="M136.256 15.6944L135.104 16.8466" stroke="#004999" stroke-width="1.62936" stroke-linecap="round"/>
  <path d="M148.065 3.88486L146.913 5.03699" stroke="#004999" stroke-width="1.62936" stroke-linecap="round"/>
  <path d="M136.256 5.03738L135.104 3.88525" stroke="#004999" stroke-width="1.62936" stroke-linecap="round"/>
  <path d="M148.065 16.847L146.913 15.6948" stroke="#004999" stroke-width="1.62936" stroke-linecap="round"/>
  <path d="M141.327 17.7013L141.327 19.3307" stroke="#004999" stroke-width="1.62936" stroke-linecap="round"/>
  <path d="M141.327 0.999917L141.327 2.62927" stroke="#004999" stroke-width="1.62936" stroke-linecap="round"/>
</svg>