<svg width="26" height="26" viewBox="0 0 26 26" fill="none" xmlns="http://www.w3.org/2000/svg">
<circle cx="13" cy="13" r="12" fill="white" stroke="#E5E7EB" stroke-width="2"/>
<g clip-path="url(#clip0_2630_6395)">
<path d="M19.375 8.5V12.25H15.625" stroke="#9CA3AF" stroke-width="1.4" stroke-linecap="round" stroke-linejoin="round"/>
<path d="M17.8062 15.375C17.3999 16.525 16.6309 17.5117 15.615 18.1866C14.5992 18.8614 13.3915 19.1879 12.1739 19.1166C10.9564 19.0454 9.79502 18.5804 8.86477 17.7917C7.93452 17.003 7.28581 15.9333 7.0164 14.7438C6.74699 13.5543 6.87147 12.3095 7.37109 11.1969C7.8707 10.0844 8.71839 9.1643 9.7864 8.57541C10.8544 7.98652 12.0849 7.7607 13.2924 7.93197C14.4999 8.10325 15.6191 8.66235 16.4812 9.52501L19.3749 12.25" stroke="#9CA3AF" stroke-width="1.4" stroke-linecap="round" stroke-linejoin="round"/>
</g>
<defs>
<clipPath id="clip0_2630_6395">
<rect width="15" height="15" fill="white" transform="translate(5 6)"/>
</clipPath>
</defs>
</svg>
