<svg xmlns="http://www.w3.org/2000/svg" width="24" height="24" viewBox="0 0 24 24" fill="none">
  <path fill-rule="evenodd" clip-rule="evenodd" d="M9.93929 12.6463L7.69205 11.8972L7.69205 11.8972L7.69204 11.8972C5.33883 11.1128 4.16223 10.7206 4.16223 9.99985C4.16223 9.27909 5.33884 8.88689 7.69205 8.10249L16.2052 5.26476C17.861 4.71283 18.6889 4.43687 19.1259 4.87388C19.5629 5.3109 19.287 6.1388 18.735 7.79459L15.8973 16.3078L15.8973 16.3078L15.8973 16.3078C15.1129 18.661 14.7207 19.8376 14 19.8376C13.2792 19.8376 12.887 18.661 12.1026 16.3078L11.3535 14.0605L15.7071 9.70696C16.0976 9.31643 16.0976 8.68327 15.7071 8.29275C15.3165 7.90222 14.6834 7.90222 14.2928 8.29275L9.93929 12.6463Z" fill="#9E9E9E"/>
</svg>