<svg width="18" height="15" viewBox="0 0 18 15" fill="none" xmlns="http://www.w3.org/2000/svg">
<path d="M2.70893 8.59018L8.50278 14.0329C8.64793 14.1692 8.7205 14.2374 8.79942 14.272C8.9273 14.328 9.07278 14.328 9.20066 14.272C9.27958 14.2374 9.35215 14.1692 9.4973 14.0329L15.2911 8.59019C16.9213 7.05884 17.1192 4.53884 15.7482 2.77173L15.4904 2.43946C13.8503 0.325494 10.5581 0.680022 9.4056 3.09472C9.2428 3.43581 8.75728 3.43581 8.59449 3.09472C7.44202 0.680022 4.14981 0.325496 2.50966 2.43946L2.25186 2.77173C0.88083 4.53884 1.07879 7.05883 2.70893 8.59018Z" fill="white" stroke="#EA580C"/>
</svg>
